<?xml version="1.0" encoding="utf-8" ?><svg xmlns="http://www.w3.org/2000/svg" xmlns:xlink="http://www.w3.org/1999/xlink" width="406" height="397" viewBox="0 0 406 397"><path fill="#0F5BAB" d="M350.9 203.667C352.414 200.25 354.245 196.43 355.524 192.984C355.508 199.128 355.624 205.795 355.457 211.892C355.765 225.142 355.295 238.524 355.485 251.776C355.846 276.784 357.422 302.473 338.961 322.289C313.265 352.219 268.066 355.592 238.457 329.883C230.526 322.997 224.837 315.006 218.463 306.769L201.541 285.1L181.102 259.079C178.411 255.597 174.068 250.279 171.746 246.703C180.89 239.943 189.288 240.505 199.934 240.495L216.804 240.489C221.501 240.488 230.159 240.153 234.41 240.57C237.367 243.703 239.911 247.443 242.592 250.854C246.713 256.021 250.862 261.167 255.038 266.29C257.958 269.938 262.002 275.762 265.769 278.083C277.787 283.469 292.351 277.436 295.797 264.237C296.671 260.889 296.547 257.808 296.559 254.373L296.531 244.662C315.227 241.112 331.926 230.711 343.358 215.497C345.287 212.98 346.837 210.631 348.408 207.869C348.941 206.931 350.254 204.348 350.9 203.667Z"/><defs><linearGradient id="gradient_0" gradientUnits="userSpaceOnUse" x1="298.37524" y1="313.90924" x2="345.31412" y2="204.41914"><stop offset="0" stop-color="#00003B"/><stop offset="1" stop-color="#033ACA"/></linearGradient></defs><path fill="url(#gradient_0)" d="M350.9 203.667C352.414 200.25 354.245 196.43 355.524 192.984C355.508 199.128 355.624 205.795 355.457 211.892C355.765 225.142 355.295 238.524 355.485 251.776C355.846 276.784 357.422 302.473 338.961 322.289C337.633 322.344 335.225 322.96 333.616 323.16C327.366 323.937 322.834 323.507 316.818 321.824C314.386 321.224 312.216 320.337 309.924 319.367C295.888 313.358 283.764 300.019 273.853 288.713C271.456 285.979 267.148 281.345 265.769 278.083C277.787 283.469 292.351 277.436 295.797 264.237C296.671 260.889 296.547 257.808 296.559 254.373L296.531 244.662C315.227 241.112 331.926 230.711 343.358 215.497C345.287 212.98 346.837 210.631 348.408 207.869C348.941 206.931 350.254 204.348 350.9 203.667Z"/><path fill="#00107C" d="M350.9 203.667C352.414 200.25 354.245 196.43 355.524 192.984C355.508 199.128 355.624 205.795 355.457 211.892L355.409 211.648C355.239 210.751 355.184 208.785 354.984 208.321C353.406 209.177 351.107 215.805 349.084 218.286C340.356 234.375 323.919 247.529 306.362 252.57C303.983 253.253 298.93 254.547 296.559 254.373L296.531 244.662C315.227 241.112 331.926 230.711 343.358 215.497C345.287 212.98 346.837 210.631 348.408 207.869C348.941 206.931 350.254 204.348 350.9 203.667Z"/><path fill="#062E7F" d="M350.9 203.667C352.414 200.25 354.245 196.43 355.524 192.984C355.508 199.128 355.624 205.795 355.457 211.892L355.409 211.648C355.239 210.751 355.184 208.785 354.984 208.321C353.406 209.177 351.107 215.805 349.084 218.286C349.634 216.236 350.059 216.065 350.997 214.218C352.188 211.868 352.967 209.661 353.592 207.1C353.729 206.978 353.864 206.853 353.996 206.726C355.515 205.246 354.56 200.374 353.812 199.617C352.421 200.083 352.336 202.977 350.9 203.667Z"/><path fill="#00107C" d="M309.924 319.367C310.415 319.066 310.754 318.679 311.337 318.918C313.202 319.683 315.712 320.058 316.818 321.824C314.386 321.224 312.216 320.337 309.924 319.367Z"/><defs><linearGradient id="gradient_1" gradientUnits="userSpaceOnUse" x1="291.12424" y1="193.65182" x2="343.5834" y2="109.83584"><stop offset="0" stop-color="#0999A5"/><stop offset="1" stop-color="#0AE2E2"/></linearGradient></defs><path fill="url(#gradient_1)" d="M306.901 83.0377C307.912 80.9151 309.611 79.0631 311.048 77.2729C319.463 66.7874 329.837 61.4684 342 56.3044C345.969 54.6192 350.169 52.5223 354.281 51.0721C354.656 50.9397 355.032 50.8129 355.41 50.6918C355.509 61.7088 355.536 72.7263 355.492 83.7436C355.491 88.7602 355.759 97.477 355.446 102.156C355.57 113.565 355.426 124.985 355.353 136.395C355.305 143.955 355.638 151.813 355.085 159.334C353.504 180.86 344.456 198.529 329.453 213.857C329.037 214.283 328.603 214.689 328.151 215.075C322.447 220.411 315.967 224.851 308.931 228.244C293.616 235.797 276.189 237.926 259.506 234.282C255.669 233.427 252.391 232.262 248.686 230.978C251.222 230.052 254.497 228.32 256.769 226.846C268.916 218.901 276.862 205.929 278.42 191.498C278.691 188.787 278.889 186.116 279.06 183.383C279.23 182.164 278.538 177.121 279.758 176.612C282.918 175.293 285.541 174.245 288.49 172.417C298.684 162.01 297.018 155.405 297.078 141.982C297.156 124.84 295.378 106.815 302.668 90.7875C303.797 88.3065 305.235 85.1768 306.901 83.0377Z"/><path fill="#06EAEB" d="M306.901 83.0377C307.912 80.9151 309.611 79.0631 311.048 77.2729C319.463 66.7874 329.837 61.4684 342 56.3044C345.969 54.6192 350.169 52.5223 354.281 51.0721C354.656 50.9397 355.032 50.8129 355.41 50.6918C355.509 61.7088 355.536 72.7263 355.492 83.7436C355.491 88.7602 355.759 97.477 355.446 102.156C354.284 105.997 355.992 119.261 354.239 121.917C354.189 121.862 354.139 121.807 354.089 121.752C353.512 119.949 351.923 118.033 350.57 116.929C347.056 114.06 347.415 112.978 343.287 112.506C342.705 112.439 337.446 107.596 336.11 106.991C334.88 106.435 332.027 105.07 330.886 104.469L313.919 95.6359C310.944 94.1214 308.398 91.0803 305.009 92.3183C303.825 89.1918 306.889 84.8841 306.901 83.0377Z"/><defs><linearGradient id="gradient_2" gradientUnits="userSpaceOnUse" x1="262.0155" y1="199.64723" x2="324.21716" y2="221.52866"><stop offset="0" stop-color="#015764"/><stop offset="1" stop-color="#018B9B"/></linearGradient></defs><path fill="url(#gradient_2)" d="M248.686 230.978C251.222 230.052 254.497 228.32 256.769 226.846C268.916 218.901 276.862 205.929 278.42 191.498C278.691 188.787 278.889 186.116 279.06 183.383C279.23 182.164 278.538 177.121 279.758 176.612C282.918 175.293 285.541 174.245 288.49 172.417C290.482 175.792 288.314 185.485 289.438 186.841C297.339 196.382 306.952 204.948 318.046 210.69C322.275 212.813 324.426 213.394 327.589 215.117L328.151 215.075C322.447 220.411 315.967 224.851 308.931 228.244C293.616 235.797 276.189 237.926 259.506 234.282C255.669 233.427 252.391 232.262 248.686 230.978Z"/><defs><linearGradient id="gradient_3" gradientUnits="userSpaceOnUse" x1="115.06907" y1="198.7386" x2="48.990467" y2="343.362"><stop offset="0" stop-color="#079AA4"/><stop offset="1" stop-color="#09FFFF" stop-opacity="0.98823529"/></linearGradient></defs><path fill="url(#gradient_3)" d="M82.2863 186.45C83.9499 186.168 83.6281 185.222 84.9712 185.122C85.7046 185.561 85.7535 186.146 85.6101 186.96L85.2908 187.139C97.8667 190.124 106.959 195.417 116.124 204.637C118.635 207.163 121.92 210.45 123.592 213.584C123.234 217.522 123.02 223.347 124.727 226.881C120.446 230.553 117.215 235.344 115.997 240.876C114.789 246.362 114.983 253.638 115.019 259.291C115.124 275.67 116.738 291.861 110.302 307.354C103.755 323.114 92.6522 332.642 77.4928 339.944C70.4296 343.347 64.0124 345.406 57.0736 348.329C56.3388 324.794 57.0829 301.392 57.2559 277.874C57.3376 266.765 56.3527 257.292 57.0473 245.969C58.2154 226.924 62.2198 211.562 73.9415 196.161C76.1928 193.203 79.4693 188.908 82.2863 186.45Z"/><path fill="#0F5BAB" d="M118.433 52.1563C120.95 51.5882 124.658 51.4845 127.238 51.4827C140.487 51.4928 153.455 55.3067 164.599 62.4712C169.462 65.5532 173.948 69.1927 177.966 73.3156C181.555 77.0041 185.197 81.6895 188.421 85.7676L201.975 103.102C211.994 115.948 223.135 129.569 232.722 142.539C234.425 145.054 238.712 150.627 240.827 152.795C238.467 154.095 233.944 156.729 231.54 157.32C220.289 160.089 207.728 159.196 196.169 159.225C190.696 159.239 182.939 159.394 177.739 158.929C175.453 156.47 172.52 152.694 170.494 149.96C166.733 145.255 150.313 123.217 146.543 121.123L145.663 119.303C146.604 116.87 142.515 112.684 141.161 110.657C133.771 99.5944 123.737 87.4106 111.774 81.1416C112.435 77.8779 111.951 74.088 112.787 70.6382C114.003 65.6176 117.443 61.3306 117.83 56.1133C117.904 55.1208 118.63 52.7564 118.433 52.1563Z"/><path fill="#062E7F" d="M232.722 142.539C234.425 145.054 238.712 150.627 240.827 152.795C238.467 154.095 233.944 156.729 231.54 157.32C220.289 160.089 207.728 159.196 196.169 159.225C190.696 159.239 182.939 159.394 177.739 158.929C175.453 156.47 172.52 152.694 170.494 149.96C170.809 149.58 171.389 148.881 171.891 148.811C187.703 146.63 219.66 152.545 232.722 142.539Z"/><defs><linearGradient id="gradient_4" gradientUnits="userSpaceOnUse" x1="112.42018" y1="84.41188" x2="88.716278" y2="149.17538"><stop offset="0" stop-color="#010037"/><stop offset="1" stop-color="#012098"/></linearGradient></defs><path fill="url(#gradient_4)" d="M93.9878 60.1385C99.6334 56.0786 111.559 52.8441 118.433 52.1563C118.63 52.7564 117.904 55.1208 117.83 56.1133C117.443 61.3306 114.003 65.6176 112.787 70.6382C111.951 74.088 112.435 77.8779 111.774 81.1416C123.737 87.4106 133.771 99.5944 141.161 110.657C142.515 112.684 146.604 116.87 145.663 119.303L146.543 121.123C142.274 119.809 138.876 119.15 134.441 119.871C126.049 121.235 118.827 126.908 116.389 135.178C115.406 138.512 115.39 141.344 115.379 144.762L115.465 154.602C89.601 160.409 70.6543 175.523 60.0728 199.294C59.2551 201.132 58.0786 204.032 56.975 205.633C56.7612 205.022 57.1081 195.894 57.0243 194.194C56.3263 185.278 56.9873 175.508 57.1338 166.543C57.2176 155.05 57.1912 143.557 57.0546 132.065C57.0078 130.627 56.977 129.189 56.9624 127.751C56.8689 113.234 58.699 100.694 65.9701 87.9852C68.3009 83.9113 70.4685 80.2543 73.8124 76.858C77.4142 71.7287 88.3416 62.5625 93.9878 60.1385Z"/><defs><linearGradient id="gradient_5" gradientUnits="userSpaceOnUse" x1="84.888313" y1="137.28575" x2="74.088425" y2="195.14313"><stop offset="0" stop-color="#021D88"/><stop offset="1" stop-color="#0847CC"/></linearGradient></defs><path fill="url(#gradient_5)" d="M57.0546 132.065L57.5263 132.199C57.7593 133.607 57.6409 136.454 57.6225 137.982C57.9896 136.638 58.6808 133.812 59.1898 132.641C62.7346 134.576 62.8608 134.543 66.7966 135.434C72.077 136.629 77.3356 137.836 82.6856 138.765C88.9324 139.874 95.055 141.754 101.284 142.462C104.144 142.787 106.585 145.388 108.401 145.015L108.587 144.367L108.915 144.375L109.009 145.117C109.53 144.719 109.745 144.562 110.317 144.246C111.039 144.589 110.799 144.44 111.277 145.213C111.826 145.124 115.323 144.797 115.379 144.762L115.465 154.602C89.601 160.409 70.6543 175.523 60.0728 199.294C59.2551 201.132 58.0786 204.032 56.975 205.633C56.7612 205.022 57.1081 195.894 57.0243 194.194C56.3263 185.278 56.9873 175.508 57.1338 166.543C57.2176 155.05 57.1912 143.557 57.0546 132.065Z"/><path fill="#00107C" d="M111.277 145.213C111.826 145.124 115.323 144.797 115.379 144.762L115.465 154.602C89.601 160.409 70.6543 175.523 60.0728 199.294C59.2551 201.132 58.0786 204.032 56.975 205.633C56.7612 205.022 57.1081 195.894 57.0243 194.194C57.3349 193.955 57.7697 193.539 57.8974 193.174C66.7665 167.841 84.9074 151.462 111.277 145.213Z"/><path fill="#0D94D7" d="M93.9878 60.1385C99.6334 56.0786 111.559 52.8441 118.433 52.1563C118.63 52.7564 117.904 55.1208 117.83 56.1133C117.443 61.3306 114.003 65.6176 112.787 70.6382C111.951 74.088 112.435 77.8779 111.774 81.1416C123.737 87.4106 133.771 99.5944 141.161 110.657C142.515 112.684 146.604 116.87 145.663 119.303C144.811 118.412 143.972 117.443 143.194 116.489C134.244 105.524 124.96 94.7462 113.234 86.6251C103.374 79.7967 91.8206 75.3224 79.6515 76.2788C77.6851 76.4333 75.7756 76.6733 73.8124 76.858C77.4142 71.7287 88.3416 62.5625 93.9878 60.1385Z"/><path fill="#0D82C9" d="M93.9878 60.1385C99.6334 56.0786 111.559 52.8441 118.433 52.1563C118.63 52.7564 117.904 55.1208 117.83 56.1133C117.443 61.3306 114.003 65.6176 112.787 70.6382C111.951 74.088 112.435 77.8779 111.774 81.1416C111.247 80.9119 109.815 80.2587 109.338 79.9472L109.467 79.547C110.316 79.7754 110.36 80.5398 111.318 80.0362C111.432 78.8098 111.731 76.6389 111.495 75.5333L111.073 75.599C110.534 75.3687 108.19 74.1574 107.956 74.1432C107.666 74.6641 107.553 74.9358 107.121 75.3627C105.136 74.0814 106.89 73.1062 105.594 71.1496C104.527 71.0579 104.023 71.1539 103.352 70.3264C103.441 69.2451 103.918 70.2004 104.838 69.3639C104.192 68.7371 104.056 68.8331 104 68.1634C105.843 66.7286 103.977 66.8915 104.4 65.5611C105.117 65.5599 108.404 67.0593 109.028 67.4642C109.082 67.9788 109.123 68.4947 109.151 69.0113L109.448 68.9818C110.463 66.8292 111.979 63.549 114.484 62.9337L115.134 63.4597C115.414 62.5675 115.784 62.2039 116.065 61.4582C116.82 59.45 117.339 57.3305 117.384 55.1899C116.789 55.4902 116.662 55.4679 115.974 55.4379C114.006 57.1166 114.528 56.4396 112.205 55.9075C111.478 56.2674 111.691 56.0005 111.391 56.5902C112.077 56.9774 111.934 56.7174 112.131 57.2648C111.232 58.0715 110.475 57.3088 109.594 58.0113L110.372 58.2663L110.355 58.6023C109.517 58.6042 109.551 58.5747 108.864 59.0294L108.835 59.3517L110.326 59.7435L110.356 60.017C108.897 61.1598 104.11 64.8192 102.74 61.8256C103.251 61.6671 103.613 61.5741 104.126 61.4538C98.8175 60.0967 101.971 60.6107 98.9228 58.1178C98.2827 58.8934 94.9892 60.0993 93.9878 60.1385Z"/><path fill="#0D82C9" d="M99.845 71.5751C102.698 72.2618 102.176 72.9519 104.484 75.3867L104.191 75.4054C102.907 74.5821 100.922 72.6878 99.845 71.5751Z"/><defs><linearGradient id="gradient_6" gradientUnits="userSpaceOnUse" x1="266.29742" y1="128.20865" x2="213.42953" y2="196.64789"><stop offset="0" stop-color="#888787"/><stop offset="1" stop-color="#D7D6D6"/></linearGradient></defs><path fill="url(#gradient_6)" d="M273.196 126.994C273.186 128.554 273.22 131.828 273.052 133.239C273.2 140.537 273.657 187.142 272.336 190.713C271.301 201.611 266.062 211.678 257.731 218.78C254.302 221.657 245.261 227.443 241.619 226.426C229.795 223.123 212.595 200.162 205.214 191.311C201.79 187.815 198.161 183.087 194.999 179.226C191.126 174.496 186.639 169.556 182.991 164.72C191.855 165.088 201.432 165.033 210.286 164.963C217.28 164.908 225.343 164.771 232.08 162.994C243.029 160.106 250.566 150.534 258.004 142.516C261.676 138.629 265.386 134.777 269.135 130.964C270.474 129.626 271.828 128.302 273.196 126.994Z"/><defs><linearGradient id="gradient_7" gradientUnits="userSpaceOnUse" x1="247.98856" y1="178.32103" x2="226.44579" y2="218.26918"><stop offset="0" stop-color="#838283"/><stop offset="1" stop-color="#A2A0A0"/></linearGradient></defs><path fill="url(#gradient_7)" d="M205.214 191.311C206.848 191.204 210.476 193.836 211.81 194.859C227.324 206.748 251.464 212.626 266.91 197.373C268.275 196.025 271.059 191.536 272.336 190.713C271.301 201.611 266.062 211.678 257.731 218.78C254.302 221.657 245.261 227.443 241.619 226.426C229.795 223.123 212.595 200.162 205.214 191.311Z"/><path fill="#8C8B8B" d="M273.196 126.994C273.186 128.554 273.22 131.828 273.052 133.239L272.611 133.135C272.152 133.422 271.715 134.345 271.422 134.856L271.035 134.947C269.878 134.16 269.544 132.178 269.135 130.964C270.474 129.626 271.828 128.302 273.196 126.994Z"/><path fill="#C2C1C1" d="M169.362 171.812C181.309 177.428 188.849 186.471 197.157 196.375C200.135 199.924 203.707 203.804 206.499 207.412C208.636 209.54 211.474 213.264 213.43 215.679C217.226 220.311 220.986 224.973 224.708 229.665C225.533 230.703 228.072 233.455 228.482 234.32L228.329 234.649C226.455 234.819 220.432 234.645 218.25 234.553C214.27 234.386 208.541 234.774 204.791 234.479C195.046 234.762 182.237 233.923 173.606 238.919C166.158 243.231 157.895 252.842 151.885 259.136L139.415 272.042C139.618 266.425 139.323 260.909 139.298 255.303L139.411 227.555C139.445 221.333 139.317 212.616 140.256 206.617C142.341 194.729 149.109 184.176 159.044 177.323C161.696 175.494 166.333 172.956 169.362 171.812Z"/><defs><linearGradient id="gradient_8" gradientUnits="userSpaceOnUse" x1="132.63988" y1="264.23584" x2="171.82356" y2="214.65411"><stop offset="0" stop-color="#807E7F"/><stop offset="1" stop-color="#B9B8B8"/></linearGradient></defs><path fill="url(#gradient_8)" d="M140.256 206.617C140.832 206.171 142.562 204.252 143.181 203.624C146.76 199.984 149.708 197.45 154.593 195.704C153.805 196.556 151.986 197.331 150.879 197.875L152.163 199.319C154.54 202.017 163.11 208.01 166.469 210.707C172.823 215.808 179.323 221.026 185.616 226.239C187.444 227.754 193.551 232.019 194.537 233.317L194.483 233.765C193.611 234.253 191.821 234.155 190.748 234.186C192.908 234.271 203.66 234.009 204.791 234.479C195.046 234.762 182.237 233.923 173.606 238.919C166.158 243.231 157.895 252.842 151.885 259.136L139.415 272.042C139.618 266.425 139.323 260.909 139.298 255.303L139.411 227.555C139.445 221.333 139.317 212.616 140.256 206.617Z"/><path fill="#8C8B8B" d="M169.362 171.812C181.309 177.428 188.849 186.471 197.157 196.375C200.135 199.924 203.707 203.804 206.499 207.412C206.042 207.46 205.559 207.372 205.17 207.118C199.737 203.569 194.366 199.898 188.374 197.326C178.087 192.91 165.134 191.46 154.593 195.704C149.708 197.45 146.76 199.984 143.181 203.624C142.562 204.252 140.832 206.171 140.256 206.617C142.341 194.729 149.109 184.176 159.044 177.323C161.696 175.494 166.333 172.956 169.362 171.812Z"/><defs><linearGradient id="gradient_9" gradientUnits="userSpaceOnUse" x1="155.60628" y1="196.88666" x2="85.459862" y2="180.61266"><stop offset="0" stop-color="#004F5D"/><stop offset="1" stop-color="#018998"/></linearGradient></defs><path fill="url(#gradient_9)" d="M82.2863 186.45C84.6732 183.705 87.7164 181.359 90.6012 179.163C108.654 165.418 132.027 160.204 154.163 165.364C157.221 166.076 160.619 167.313 163.675 168.229C151.811 173.262 142.421 182.783 137.552 194.714C133.969 203.403 133.228 211.697 133.508 220.999C133.554 222.512 133.449 222.784 131.952 223.346C129.359 224.005 126.9 225.339 124.727 226.881C123.02 223.347 123.234 217.522 123.592 213.584C121.92 210.45 118.635 207.163 116.124 204.637C106.959 195.417 97.8667 190.124 85.2908 187.139L85.6101 186.96C85.7535 186.146 85.7046 185.561 84.9712 185.122C83.6281 185.222 83.9499 186.168 82.2863 186.45Z"/><path fill="#008697" d="M123.592 213.584C126.159 216.463 128.858 220.987 131.952 223.346C129.359 224.005 126.9 225.339 124.727 226.881C123.02 223.347 123.234 217.522 123.592 213.584Z"/></svg>